<?xml version="1.0" encoding="UTF-8" standalone="no"?>
<svg
   xmlns:dc="http://purl.org/dc/elements/1.1/"
   xmlns:cc="http://creativecommons.org/ns#"
   xmlns:rdf="http://www.w3.org/1999/02/22-rdf-syntax-ns#"
   xmlns:svg="http://www.w3.org/2000/svg"
   xmlns="http://www.w3.org/2000/svg"
   xmlns:xlink="http://www.w3.org/1999/xlink"
   xmlns:sodipodi="http://sodipodi.sourceforge.net/DTD/sodipodi-0.dtd"
   xmlns:inkscape="http://www.inkscape.org/namespaces/inkscape"
   sodipodi:docname="chene 2.svg"
   inkscape:version="1.0 (4035a4fb49, 2020-05-01)"
   width="30.0px"
   height="30.0px"
   viewBox="0 0 30.0 30.0"
   version="1.1"
   id="SVGRoot">
  <defs
     id="defs46">
    <linearGradient
       id="linearGradient92"
       inkscape:collect="always">
      <stop
         id="stop88"
         offset="0"
         style="stop-color:#ffd42a;stop-opacity:1" />
      <stop
         id="stop90"
         offset="1"
         style="stop-color:#ffffff;stop-opacity:1" />
    </linearGradient>
    <linearGradient
       id="linearGradient3204"
       inkscape:collect="always">
      <stop
         id="stop3200"
         offset="0"
         style="stop-color:#222b00;stop-opacity:1" />
      <stop
         id="stop3202"
         offset="1"
         style="stop-color:#ffdd55;stop-opacity:1" />
    </linearGradient>
    <linearGradient
       gradientTransform="matrix(0.06269029,0,0,0.0662075,-3.9880575,-2.3806523)"
       gradientUnits="userSpaceOnUse"
       y2="217.2058"
       x2="302.88675"
       y1="428.6622"
       x1="302.88675"
       id="linearGradient3206"
       xlink:href="#linearGradient3204"
       inkscape:collect="always" />
    <linearGradient
       gradientUnits="userSpaceOnUse"
       y2="5"
       x2="15"
       y1="30"
       x1="15"
       id="linearGradient94"
       xlink:href="#linearGradient92"
       inkscape:collect="always" />
  </defs>
  <sodipodi:namedview
     inkscape:window-maximized="0"
     inkscape:window-y="0"
     inkscape:window-x="0"
     inkscape:window-height="728"
     inkscape:window-width="1366"
     showgrid="true"
     inkscape:document-rotation="0"
     inkscape:current-layer="layer3"
     inkscape:document-units="px"
     inkscape:cy="16.512382"
     inkscape:cx="21.864812"
     inkscape:zoom="15.839192"
     inkscape:pageshadow="2"
     inkscape:pageopacity="0.0"
     borderopacity="1.0"
     bordercolor="#666666"
     pagecolor="#ffffff"
     id="base">
    <inkscape:grid
       type="xygrid"
       id="grid55" />
  </sodipodi:namedview>
  <metadata
     id="metadata49">
    <rdf:RDF>
      <cc:Work
         rdf:about="">
        <dc:format>image/svg+xml</dc:format>
        <dc:type
           rdf:resource="http://purl.org/dc/dcmitype/StillImage" />
        <dc:title></dc:title>
      </cc:Work>
    </rdf:RDF>
  </metadata>
  <g
     inkscape:label="fond"
     id="layer3"
     inkscape:groupmode="layer">
    <ellipse
       ry="14.842163"
       rx="14.936866"
       cy="14.968432"
       cx="14.936867"
       id="path63"
       style="fill:url(#linearGradient94);stroke-width:0.99263;fill-opacity:1" />
    <path
       style="fill:url(#linearGradient3206);fill-opacity:1;stroke-width:0.0644249"
       id="path2"
       fill="#7f7f7f"
       d="m 17.691497,25.682053 c -0.324736,-0.148482 -1.297941,-0.418139 -1.509081,-0.418139 -0.227271,0 -0.241063,-0.114648 -0.02082,-0.173026 0.431674,-0.114424 1.200081,0.105669 1.62393,0.465113 0.235772,0.199946 0.192992,0.257297 -0.09404,0.126052 z m -0.316205,-0.519 c -0.156675,-0.08611 -0.650348,-0.292325 -1.097079,-0.458249 -0.446719,-0.165921 -0.930449,-0.389193 -1.075012,-0.496159 -0.531226,-0.393185 -1.570455,-0.785486 -1.866793,-0.704711 -0.07002,0.0191 -0.281655,0.169127 -0.470302,0.333394 -0.188648,0.164273 -0.422645,0.339419 -0.520003,0.389214 l -0.177,0.09053 0.394617,0.15092 c 0.460341,0.176059 1.030566,0.473238 1.209608,0.630421 0.12538,0.110069 0.12538,0.110069 0,0.06318 -0.688339,-0.257419 -0.991321,-0.359889 -1.28515,-0.434624 -0.629223,-0.160056 -1.977377,-0.087 -3.259895,0.176676 -0.430996,0.0886 -0.8400494,0.159478 -0.9090098,0.157485 -0.1394791,-0.004 0.6294728,-0.338935 1.1484868,-0.500203 0.183443,-0.057 0.512575,-0.233097 0.731408,-0.391319 0.218826,-0.158224 0.614007,-0.3827 0.878165,-0.498847 0.437038,-0.192149 0.721252,-0.402986 0.721252,-0.535076 0,-0.02793 -0.119069,-0.0064 -0.264597,0.04782 -0.29811,0.111075 -1.459618,0.253349 -1.600859,0.196091 -0.05594,-0.02266 -0.07934,-0.08904 -0.05955,-0.168947 0.04277,-0.172735 -0.0037,-0.166182 -0.292777,0.04122 -0.215931,0.154966 -0.256962,0.163712 -0.39688,0.08463 -0.138407,-0.07822 -0.220902,-0.06411 -0.729777,0.124869 -0.3456246,0.128361 -0.7979846,0.237843 -1.1378919,0.275383 -0.3103168,0.03427 -0.7334762,0.08393 -0.9403548,0.110348 -0.3461692,0.04421 -0.3692833,0.03926 -0.2900986,-0.06209 0.04732,-0.06057 0.1238442,-0.110113 0.1700469,-0.110113 0.2201687,0 0.8459431,-0.319571 1.3803153,-0.704911 0.7453246,-0.537421 0.9921992,-0.647921 1.8271081,-0.817663 0.370738,-0.0754 0.923617,-0.198808 1.228604,-0.274258 0.50798,-0.125662 0.565235,-0.156277 0.681444,-0.364328 0.0698,-0.124919 0.215185,-0.274072 0.323094,-0.331434 0.286857,-0.152495 0.59219,-0.480652 0.664015,-0.71365 0.03449,-0.111882 0.104972,-0.438585 0.156613,-0.72603 0.105597,-0.587752 0.197881,-0.773039 0.469362,-0.942399 0.439234,-0.27402 0.50324,-1.273766 0.09416,-1.4706 -0.08771,-0.04221 -0.279016,-0.07674 -0.425108,-0.07674 -0.238342,0 -0.298229,-0.03571 -0.583014,-0.347591 -0.393344,-0.430772 -0.527708,-0.643251 -0.705516,-1.115727 -0.07833,-0.208117 -0.241221,-0.471914 -0.371172,-0.601106 -0.28114,-0.2795 -0.832839,-0.650102 -0.967749,-0.650102 -0.05405,0 -0.216005,0.103867 -0.359875,0.230811 -0.317644,0.280276 -0.914525,0.588453 -1.416172,0.731195 -0.2088467,0.05943 -0.7559192,0.121756 -1.2492294,0.142313 C 6.274391,15.673036 6.0039446,15.655646 5.4134024,15.54051 3.5929397,15.1856 2.9030327,14.308663 3.511693,13.123018 c 0.3018097,-0.587916 1.3939184,-1.510921 1.8931838,-1.600037 0.1837015,-0.03279 0.1484571,9.78e-4 -0.2201056,0.210997 -0.5303476,0.302178 -1.3549873,1.13771 -1.5339058,1.554287 -0.1608446,0.374384 -0.1609384,0.760725 -2.504e-4,1.039126 0.1641855,0.284401 0.7493989,0.575721 1.3774303,0.685712 0.7361096,0.128912 2.5584534,0.112134 3.1786486,-0.02927 C 8.718861,14.867061 9.491594,14.545222 9.56632,14.41756 9.63235,14.304723 9.240807,14.257145 8.918354,14.33884 8.65807,14.40479 8.5242832,14.39548 7.9964309,14.27466 7.4466113,14.148827 7.3360508,14.142359 6.9869918,14.21561 6.6329736,14.2899 6.566189,14.28528 6.2973982,14.16801 6.0818544,14.07397 5.9656206,13.971281 5.8758982,13.795625 5.7105271,13.471864 5.7890222,13.415197 6.0577191,13.66435 c 0.3896389,0.3613 1.1068595,0.352997 1.6652412,-0.01929 0.308029,-0.205354 0.3287488,-0.118928 0.036458,0.152101 -0.2046963,0.189801 -0.2084822,0.201112 -0.078365,0.23383 0.7797407,0.196087 1.1579507,0.0614 1.7617217,-0.627302 0.219064,-0.249888 0.429685,-0.454336 0.468053,-0.454336 0.101688,0 0.08528,0.305898 -0.0289,0.5391 -0.05427,0.110819 -0.08812,0.212619 -0.07524,0.226219 0.05787,0.06112 0.751343,0.360209 0.835222,0.360209 0.07901,0 0.0878,-0.100063 0.05665,-0.645525 -0.03185,-0.557724 -0.025,-0.630202 0.05043,-0.532903 0.146552,0.189088 0.307465,1.009332 0.236619,1.206169 -0.05757,0.15993 -0.08881,0.171145 -0.486239,0.17472 l -0.424714,0.0039 0.313451,0.153402 c 0.572526,0.280189 0.814848,0.523534 1.227476,1.232651 0.215133,0.369721 0.534033,0.820773 0.70865,1.002315 l 0.317514,0.330078 0.346409,-0.04534 c 0.288927,-0.03782 0.536384,-0.121875 0.832275,-0.28272 0.02586,-0.01406 0.04701,0.02261 0.04701,0.08151 0,0.05887 -0.09869,0.168557 -0.219322,0.243722 -0.120628,0.07516 -0.203594,0.163541 -0.184372,0.196391 0.06979,0.119266 0.319262,0.05534 0.531445,-0.136207 0.250584,-0.226205 0.311081,-0.244047 0.311081,-0.09176 0,0.06026 -0.114448,0.224542 -0.254335,0.365076 -0.257274,0.258473 -0.285804,0.319694 -0.462379,0.992183 -0.08695,0.331172 -0.130947,0.394617 -0.380855,0.549292 -0.403845,0.249945 -0.471588,0.389485 -0.453547,0.934254 0.02228,0.673064 -0.192859,1.227221 -0.596026,1.535219 -0.163779,0.125125 -0.297779,0.252985 -0.297779,0.284148 0,0.03116 -0.176317,0.188473 -0.391814,0.349594 -0.383257,0.286548 -0.404822,0.293685 -0.987372,0.326883 -0.86475,0.04927 -1.568512,0.262458 -2.4853559,0.752844 -0.7762947,0.415186 -0.784131,0.421649 -0.5149953,0.422371 0.2046395,5.27e-4 0.4181136,-0.07849 0.8492657,-0.314485 L 8.90699,22.847441 9.093977,22.963886 c 0.184987,0.115197 0.190371,0.114223 0.502851,-0.09092 0.332271,-0.218143 0.509227,-0.217591 0.509227,0.0017 0,0.07182 0.02116,0.142381 0.04702,0.156794 0.108945,0.06072 1.393417,-0.08506 1.629884,-0.184985 0.288741,-0.122014 0.673922,-0.591041 0.737866,-0.898435 0.05015,-0.241127 0.218224,-0.258859 0.218224,-0.02302 0,0.218716 -0.09283,0.40601 -0.335305,0.676508 -0.107183,0.119564 -0.30833,0.41328 -0.446982,0.652692 -0.242047,0.417936 -0.270621,0.442822 -0.716362,0.623789 -0.255331,0.103667 -0.48956,0.215226 -0.520505,0.247913 -0.08168,0.08626 1.030064,0.0393 1.313236,-0.05547 0.149072,-0.04989 0.411607,-0.261405 0.714294,-0.575501 l 0.478596,-0.496623 0.395582,0.04848 c 0.597689,0.07326 0.975711,0.238466 1.562305,0.682864 0.611399,0.463116 1.064419,0.719345 1.379187,0.780123 0.218081,0.04211 0.216337,0.039 -0.285942,-0.511982 -0.277945,-0.304893 -0.612423,-0.684586 -0.743258,-0.843749 l -0.237928,-0.28938 0.02921,-0.70372 c 0.02573,-0.620335 0.05624,-0.772243 0.257431,-1.282107 0.138094,-0.349927 0.228995,-0.689882 0.230149,-0.860697 0.0015,-0.234766 0.01333,-0.261572 0.06972,-0.15909 0.06404,0.116372 0.05149,0.424841 -0.04691,1.153533 -0.140107,1.037604 0.300681,1.448156 2.29484,2.137112 0.499955,0.172741 0.923114,0.299066 0.940354,0.280719 0.05408,-0.05754 -0.411148,-0.44253 -0.761499,-0.630202 -0.184554,-0.09884 -0.504819,-0.230297 -0.711722,-0.292109 -0.517754,-0.154692 -1.105419,-0.440689 -1.243024,-0.604951 -0.09126,-0.108916 -0.121776,-0.290637 -0.14983,-0.892145 -0.05049,-1.082824 -0.01644,-1.232253 0.487951,-2.140487 0.304422,-0.548179 0.427076,-0.830441 0.400828,-0.922271 -0.02079,-0.07283 -0.05361,-0.348477 -0.07291,-0.612545 -0.03941,-0.539484 0.01146,-0.658169 0.555393,-1.295614 l 0.272346,-0.31916 0.573823,-0.05578 c 0.315601,-0.03068 0.632357,-0.08888 0.703949,-0.129331 0.07158,-0.04045 0.240599,-0.24535 0.375615,-0.455321 0.294519,-0.458036 0.310311,-0.472471 0.8072,-0.738215 0.215498,-0.115232 0.391814,-0.225819 0.391814,-0.245741 0,-0.06309 -0.459182,0.05011 -0.752283,0.185454 -0.155159,0.07166 -0.415078,0.268212 -0.577603,0.436811 -0.261106,0.270861 -0.300738,0.292119 -0.340502,0.182678 -0.04539,-0.124913 0.07708,-0.537823 0.357596,-1.205637 0.146082,-0.347776 0.130635,-0.522816 -0.03046,-0.345125 -0.04756,0.05246 -0.176171,0.325533 -0.285823,0.60685 -0.109646,0.281315 -0.261494,0.609042 -0.337431,0.728281 -0.125606,0.197232 -0.174649,0.220565 -0.54333,0.258447 -0.222896,0.0229 -0.528705,0.08993 -0.679563,0.148967 -0.150877,0.05903 -0.429215,0.107338 -0.618546,0.107338 -0.327356,0 -0.342207,-0.0073 -0.303127,-0.148967 0.108552,-0.393471 0.22188,-1.033366 0.219874,-1.24139 -0.0025,-0.258738 -0.348082,-0.825011 -0.926438,-1.518138 -0.184434,-0.22102 -0.299497,-0.401852 -0.255701,-0.401852 0.0438,0 0.124165,0.04159 0.178605,0.09242 0.164048,0.153191 0.953581,0.550793 1.321448,0.665452 0.189639,0.05912 0.635367,0.13697 0.990508,0.173007 0.801306,0.08133 1.471153,0.0018 2.052166,-0.243949 l 0.424375,-0.179421 -0.244617,-0.200245 c -0.319539,-0.261572 -0.852399,-0.846066 -0.811087,-0.889696 0.01776,-0.01875 0.200898,0.105814 0.406986,0.276806 0.777735,0.645278 1.472468,0.810181 2.276722,0.54036 0.199041,-0.06677 0.377439,-0.104988 0.396441,-0.08492 0.08164,0.08621 -0.186152,0.454925 -0.448173,0.617093 -0.247006,0.15288 -0.327024,0.170279 -0.604303,0.131435 -0.175777,-0.02464 -0.431033,-0.104808 -0.567228,-0.178198 -0.220431,-0.118763 -0.259023,-0.122581 -0.351373,-0.03476 -0.05706,0.05426 -0.226161,0.17194 -0.375783,0.261498 L 20,13 l 0.217522,0.175218 c 0.370524,0.298469 0.96286,0.509215 1.549015,0.551118 l 0.532867,0.03809 -0.235088,-0.27521 c -0.33555,-0.39281 -0.315734,-0.577046 0.02499,-0.232303 0.124941,0.126418 0.259713,0.183752 0.485881,0.2067 0.424187,0.04305 0.592818,-0.01239 0.88456,-0.290769 l 0.248197,-0.236867 0.186447,0.165691 c 0.377828,0.335758 0.95659,0.291208 1.367087,-0.105245 0.228982,-0.22112 0.160913,-0.0061 -0.07791,0.246125 -0.376802,0.397942 -1.175632,0.493789 -1.423322,0.170783 l -0.1113,-0.14516 -0.164367,0.206303 c -0.217942,0.273542 -0.365366,0.351543 -0.777736,0.4115 -0.883682,0.128482 -1.13576,0.191571 -1.67057,0.418101 -0.665583,0.281897 -1.263711,0.657054 -1.157827,0.726161 0.139317,0.09094 1.175443,0.118677 1.731568,0.04636 0.61177,-0.07955 1.283144,-0.245193 1.371539,-0.338373 0.03186,-0.03357 -0.03793,-0.0994 -0.164745,-0.155349 -0.314605,-0.138825 -0.377152,-0.272451 -0.103167,-0.220418 0.599119,0.113778 1.38577,0.176059 1.748558,0.13842 0.83911,-0.08705 1.800904,-0.537724 2.326248,-1.090041 0.286959,-0.3017 0.557932,-0.889496 0.557173,-1.208618 -0.0018,-0.768667 -0.655113,-1.295944 -2.437461,-1.967421 -0.525452,-0.197954 -2.300232,-0.6618499 -2.532123,-0.6618499 -0.02491,0 -0.0453,-0.030488 -0.0453,-0.067752 0,-0.089888 0.815725,-0.024078 1.786673,0.1441389 1.381756,0.2393942 2.683833,0.811175 3.226168,1.416775 0.386359,0.431442 0.503953,0.704381 0.503884,1.169555 -1.88e-4,1.489602 -2.041321,2.916704 -3.861345,2.699676 -0.382487,-0.0456 -0.465714,-0.03421 -0.714983,0.09788 -0.989189,0.524172 -2.049973,0.684056 -3.090881,0.465936 l -0.547468,-0.114729 -0.125644,0.168696 c -0.144377,0.193843 -0.637309,0.405641 -1.097456,0.471543 -0.392398,0.0562 -0.379584,0.04706 -0.777485,0.55419 l -0.32824,0.418306 0.09987,0.467068 c 0.16352,0.764696 0.142081,0.910815 -0.224037,1.527406 -0.580086,0.976892 -0.647903,1.180478 -0.647089,1.943123 5.02e-4,0.481296 0.02582,0.701336 0.09009,0.783103 0.139079,0.176986 0.610509,0.405335 1.504316,0.728678 0.875344,0.316657 1.116388,0.462732 1.758839,1.065875 0.460359,0.43221 0.521558,0.527813 0.305959,0.477979 -0.771466,-0.178343 -2.839681,-0.771648 -3.313871,-0.950673 -0.328233,-0.123909 -0.709653,-0.224087 -0.847572,-0.222617 l -0.250761,0.0026 0.470692,0.477309 c 0.258878,0.262521 0.56588,0.611381 0.682194,0.775224 0.116341,0.163864 0.38186,0.464346 0.590041,0.667702 0.27029,0.264069 0.367065,0.401312 0.338465,0.480004 -0.05211,0.143412 -0.139905,0.133131 -0.485561,-0.05686 z m 0.363222,-10.401857 c 0.07757,-0.02196 0.141054,-0.06227 0.141054,-0.08961 0,-0.05449 -0.502727,-0.421491 -0.529745,-0.386731 -0.0092,0.01183 -0.03305,0.133235 -0.05299,0.269788 -0.03432,0.234959 -0.02724,0.248231 0.132183,0.247371 0.09266,-5.29e-4 0.231929,-0.01887 0.309508,-0.04082 z m 0.981793,-0.670021 c 0.09988,-0.172967 0.232292,-0.403866 0.294249,-0.513108 l 0.112654,-0.198623 h -1.686493 v 0.202165 c 1e-6,0.181443 0.0498,0.233833 0.48585,0.511155 0.267216,0.169942 0.514266,0.309872 0.548997,0.310944 0.03473,0.0011 0.144864,-0.139565 0.244743,-0.312533 z m 0.914588,0.10821 c 0,-0.0231 0.07757,-0.05869 0.172398,-0.07909 0.09482,-0.0204 0.283868,-0.08661 0.420113,-0.147153 0.225297,-0.100096 0.236643,-0.116409 0.125381,-0.18013 -0.06729,-0.03853 -0.229422,-0.158394 -0.360312,-0.266352 -0.130893,-0.107954 -0.246962,-0.185249 -0.25794,-0.171757 -0.09348,0.114881 -0.347568,0.842624 -0.349717,1.001654 -3.77e-4,0.02762 0.05575,0.01301 0.124703,-0.03247 0.06897,-0.04549 0.12538,-0.101596 0.12538,-0.124702 z m 4.137558,10.720976 c -0.279297,-0.124748 -0.900294,-0.247933 -1.26183,-0.250317 -0.242603,-0.0017 -0.378411,-0.03493 -0.434807,-0.1067 -0.05936,-0.07555 -0.140551,-0.09278 -0.294011,-0.06236 -0.37206,0.07372 -1.033637,-0.236612 -0.870893,-0.408508 0.02076,-0.02193 0.189137,0.0056 0.374147,0.06119 0.312807,0.09397 0.353562,0.09252 0.581221,-0.02082 l 0.244825,-0.121875 0.156726,0.188692 c 0.128045,0.154158 0.225558,0.196504 0.532867,0.231395 0.381947,0.04336 0.750779,0.198225 1.034389,0.434295 0.175809,0.146339 0.164337,0.156409 -0.06269,0.055 z M 4.150395,24.479274 c 0,-0.03411 0.075134,-0.08195 0.1669629,-0.106285 0.091829,-0.02434 0.3574785,-0.140095 0.5903292,-0.257222 0.4138874,-0.208196 0.4265192,-0.210274 0.5640121,-0.0927 0.1836324,0.157044 0.1205654,0.208203 -0.4122956,0.334473 -0.6653315,0.157655 -0.9090086,0.190289 -0.9090086,0.121724 z m 10.973308,-1.11917 c -0.293761,-0.374998 -0.586074,-1.539323 -0.386455,-1.539323 0.0574,0 0.09071,0.08208 0.322347,0.794488 0.07697,0.236693 0.209574,0.556971 0.294695,0.711731 0.202941,0.368974 0.04975,0.390968 -0.230587,0.03311 z m -2.419971,-2.151743 c 0.04616,-0.118346 0.119908,-0.393935 0.163885,-0.612419 0.04398,-0.218486 0.10449,-0.431336 0.134471,-0.472994 0.09098,-0.126462 0.145178,-0.780718 0.06006,-0.72517 -0.03991,0.02606 -0.07258,0.107686 -0.07258,0.181403 0,0.07874 -0.03232,0.121913 -0.07837,0.104651 -0.108278,-0.04057 -0.06672,-0.320853 0.06881,-0.464246 0.273418,-0.289261 0.474422,0.126032 0.296664,0.612943 -0.06023,0.164996 -0.164683,0.504818 -0.232106,0.755162 -0.13751,0.510584 -0.28028,0.83587 -0.366869,0.83587 -0.03184,0 -0.02012,-0.09683 0.02604,-0.215176 z m 2.986127,-1.864469 c -0.146658,-0.186619 -0.143662,-0.522589 0.0075,-0.830177 0.211655,-0.431003 0.305942,-0.409412 0.163127,0.03736 -0.08227,0.257369 -0.107424,0.457045 -0.07955,0.631329 0.04382,0.27398 0.02444,0.308387 -0.09099,0.161505 z m 0.384039,-0.383288 c -0.103308,-0.109106 -0.09543,-0.190665 0.05418,-0.560586 0.146853,-0.363101 0.409331,-0.684123 0.559374,-0.684123 0.143642,0 0.25157,0.133503 0.25157,0.311176 0,0.190711 -0.09906,0.199503 -0.145273,0.01289 -0.01899,-0.07667 -0.07165,-0.126488 -0.117017,-0.110717 -0.103396,0.03593 -0.362199,0.508514 -0.363579,0.66393 -0.0018,0.197549 0.100091,0.128072 0.218382,-0.148968 0.123023,-0.288121 0.219416,-0.344385 0.219416,-0.128065 0,0.166803 -0.09822,0.376344 -0.269524,0.574966 -0.142227,0.164909 -0.292872,0.190612 -0.407531,0.06952 z m -0.136463,-1.881287 c -8.26e-4,-0.07702 0.05496,-0.215789 0.123925,-0.308374 0.145712,-0.195636 0.167623,-0.673065 0.05297,-1.153929 -0.06035,-0.253105 -0.05366,-0.382158 0.0401,-0.774165 0.195857,-0.818788 0.292834,-0.683261 0.154651,0.216068 -0.05175,0.336764 -0.04595,0.483388 0.02875,0.728281 0.211767,0.694254 0.204783,0.763771 -0.111896,1.114406 -0.240386,0.266121 -0.287284,0.295013 -0.2885,0.177741 z M 9.010158,16.089515 C 8.809267,15.978884 8.729105,15.880128 8.727581,15.741403 c -6.51e-4,-0.05979 0.05144,-0.04405 0.164217,0.04965 0.238858,0.198423 0.526567,0.171079 1.032824,-0.09816 0.243413,-0.129455 0.467563,-0.226283 0.498112,-0.215175 0.134727,0.049 -0.125882,0.366433 -0.437854,0.533315 -0.382863,0.204807 -0.69906,0.230264 -0.974709,0.07847 z m 3.492789,-0.367232 c -0.459764,-0.240348 -1.03489,-1.061307 -1.28396,-1.832821 -0.138174,-0.427993 -0.228869,-1.315941 -0.127667,-1.249867 0.03483,0.02274 0.07889,0.142651 0.09792,0.266479 0.04636,0.30167 0.391839,1.203851 0.551937,1.441271 0.114811,0.170287 0.165089,0.190585 0.47214,0.190585 0.421874,0 0.67511,-0.126065 0.975335,-0.485493 l 0.230436,-0.275893 0.1953,0.19706 c 0.463739,0.46792 0.67135,1.027805 0.503734,1.358579 -0.103089,0.203428 -0.424776,0.411174 -0.564293,0.364406 -0.167695,-0.05621 -0.158946,-0.117817 0.06265,-0.440871 0.103439,-0.1508 0.188071,-0.349533 0.188071,-0.441623 0,-0.182858 -0.129537,-0.607189 -0.185362,-0.607189 -0.01913,0 -0.07249,0.08997 -0.118585,0.199928 -0.04609,0.109956 -0.18478,0.281268 -0.308205,0.380692 -0.185087,0.149094 -0.288419,0.180765 -0.589759,0.180765 -0.200941,0 -0.365347,0.0094 -0.365347,0.02083 0,0.06363 0.438706,0.399694 0.710031,0.54392 0.173326,0.09213 0.326616,0.203852 0.340633,0.248278 0.04273,0.135394 -0.489705,0.09537 -0.785007,-0.05902 z m 1.458302,-1.9561 c -0.302883,-0.244246 -0.307045,-0.24536 -0.935716,-0.250701 -0.54928,-0.0047 -0.678997,-0.02877 -0.996524,-0.185184 -0.429421,-0.211538 -0.431191,-0.356764 -0.0025,-0.202488 0.585646,0.210745 1.615842,-0.03416 2.060002,-0.489698 0.237321,-0.24341 0.534673,-0.800911 0.530454,-0.994568 -0.0016,-0.07547 -0.114804,-0.173655 -0.313658,-0.272159 -0.224744,-0.111322 -0.354519,-0.232375 -0.467607,-0.436168 -0.246931,-0.444994 -0.182297,-0.62974 0.07404,-0.211632 0.157208,0.256414 0.59409,0.503957 0.889449,0.503957 0.111507,0 0.288419,-0.04679 0.393143,-0.103991 0.176253,-0.09626 0.188836,-0.09564 0.16929,0.0082 -0.01163,0.06172 -0.137863,0.175561 -0.28054,0.252952 -0.23206,0.12588 -0.26271,0.170921 -0.29062,0.42719 -0.0254,0.233203 0.0062,0.362466 0.170043,0.695179 0.110678,0.224787 0.222273,0.483189 0.247989,0.574225 0.04382,0.15513 0.05623,0.143709 0.197862,-0.182072 0.176774,-0.406606 0.247753,-0.446357 0.187069,-0.104764 -0.08791,0.494861 -0.286469,0.948885 -0.414972,0.948885 -0.112222,0 -0.284878,-0.295908 -0.395952,-0.678625 -0.02233,-0.07692 -0.09724,-0.115869 -0.222877,-0.115869 h -0.189242 l 0.01489,0.506202 c 0.0093,0.314686 -0.01062,0.515696 -0.05244,0.531296 -0.03703,0.0138 -0.204232,-0.08531 -0.371559,-0.220246 z m 0.246649,-0.447073 c -0.03363,-0.141551 -0.05855,-0.160262 -0.130008,-0.09762 -0.07548,0.06615 -0.07294,0.09552 0.01728,0.200806 0.131932,0.153966 0.166356,0.122459 0.11273,-0.103174 z M 9.831677,12.477216 C 9.268894,12.416623 8.677924,12.1585 8.2458639,11.784619 8.0076149,11.578443 7.9612743,11.561367 7.8348217,11.633202 7.1887982,12.000171 6.055985,11.657729 5.7782041,11.011521 5.6221246,10.648393 5.6210899,10.166647 5.7757306,9.8465335 5.9372395,9.5121845 6.3479365,9.1301682 6.7600933,8.9308845 7.2086926,8.7139889 7.4277461,8.7570637 7.002705,8.9785864 6.3512274,9.3181431 5.8181093,10.0914 5.9409197,10.518704 c 0.066972,0.233057 0.3311552,0.56769 0.5368797,0.680017 0.3031639,0.165572 0.9915098,0.199312 1.3736071,0.06733 0.354444,-0.122439 0.4396531,-0.09894 0.3277068,0.09037 -0.06278,0.106174 -0.041098,0.144596 0.1590956,0.282022 0.4905831,0.336766 0.8952801,0.472039 1.5038151,0.502661 0.633735,0.0319 1.016461,-0.06512 1.797519,-0.45564 0.205624,-0.102815 0.385738,-0.174391 0.400252,-0.159063 0.08177,0.08635 -0.173402,0.470809 -0.423774,0.638498 -0.463331,0.310322 -0.973455,0.399602 -1.784291,0.312282 z M 18.913619,9.8463939 C 18.653586,9.6767645 18.523352,9.5076437 18.473138,9.2744005 l -0.04276,-0.1986213 0.160757,0.2408826 c 0.243414,0.3647244 0.757863,0.4990331 1.106108,0.2887775 0.200219,-0.1208748 0.250761,-0.1218422 0.250761,-0.0048 0,0.051979 -0.07434,0.1562577 -0.165183,0.2317263 -0.209349,0.1739154 -0.614113,0.1804494 -0.869201,0.014048 z M 20.44953,9.6401456 c -0.45031,-0.090594 -0.720059,-0.3251714 -0.877789,-0.7633728 -0.08435,-0.2343341 0.0072,-0.2030438 0.166587,0.056904 0.3587,0.585141 1.079025,0.5718476 1.775577,-0.032773 0.214765,-0.1864136 0.377533,-0.2435634 0.377533,-0.1325589 0,0.031182 -0.09692,0.1907303 -0.215366,0.354567 -0.308831,0.4271575 -0.749839,0.6131469 -1.226535,0.5172532 z m 3.824108,-0.1732321 c 0,-0.02157 0.05642,-0.1149639 0.125381,-0.2075545 0.16722,-0.2245172 0.171846,-0.929884 0.0086,-1.3093845 C 24.255661,7.5967632 23.672804,7.0441893 23.19059,6.7961759 22.719134,6.5537111 21.801186,6.2895229 21.076422,6.1877162 20.240511,6.0702969 20.221391,6.0489054 20.724041,5.7938406 21.403666,5.4489529 21.551678,5.0322558 21.15367,4.5842962 20.960735,4.367149 20.301772,4.011032 20.092763,4.0109526 19.951916,4.010899 19.845305,3.9104235 19.931316,3.8588015 c 0.02642,-0.015858 0.225058,0.010152 0.441415,0.057809 1.0705,0.2357848 1.613272,0.9100885 1.27487,1.5836838 -0.07527,0.1498343 -0.227522,0.3303615 -0.338347,0.4011638 l -0.201498,0.1287407 0.219416,0.016709 c 1.851746,0.1410222 3.258013,0.8630146 3.707063,1.9033337 0.290658,0.6733955 -0.04198,1.5558754 -0.586479,1.5558754 -0.09577,0 -0.174123,-0.017649 -0.174123,-0.039211 z M 25.669562,9.313789 c 0.22897,-0.2873807 0.222011,-0.5366122 -0.02322,-0.8315665 -0.14877,-0.178945 -0.170173,-0.2340296 -0.09093,-0.2340296 0.1896,0 0.470176,0.1982981 0.570506,0.4031967 0.18446,0.3767268 0.0018,0.7445018 -0.413474,0.832228 L 25.49819,9.5288655 25.669542,9.313797 Z M 7.4868713,8.6011323 C 7.317489,8.5291598 7.1976255,8.1517289 7.1960644,7.6854146 7.1936651,6.9664014 7.4356285,6.4856694 8.2083241,5.6741639 8.88331,4.965347 9.395804,4.6372226 10.324936,4.3192943 c 0.815601,-0.279091 1.94854,-0.3850629 2.444922,-0.2287006 0.247689,0.078019 0.243477,0.079607 -0.344797,0.1294423 C 11.228304,4.3214124 10.700451,4.4589852 9.893502,4.8798133 8.993018,5.3494036 8.2868118,6.0899535 7.8101159,7.0645947 7.6701344,7.3507967 7.6353418,7.511436 7.6326274,7.8840452 c -0.00186,0.2548994 0.01969,0.5304862 0.047873,0.6124185 0.051922,0.150955 -0.00821,0.1834483 -0.1936125,0.1046517 z M 15.465465,8.0354617 c -0.10343,-0.038435 -0.221574,-0.097768 -0.262516,-0.1318663 -0.04095,-0.034093 -0.200559,-0.042017 -0.35469,-0.017606 -0.154129,0.024411 -0.369565,0.023662 -0.478745,-0.00179 -0.343606,-0.079703 -0.816103,-0.6145981 -0.816103,-0.9238595 0,-0.1718609 0.09035,-0.1153784 0.219002,0.1369045 0.253977,0.4980657 0.70163,0.7104061 1.098835,0.5212579 0.230927,-0.109979 0.256648,-0.1101693 0.469494,-0.00347 0.381689,0.1912871 0.619331,0.2010257 0.937407,0.038413 0.342729,-0.1752177 0.493968,-0.4390679 0.460987,-0.8042877 -0.02849,-0.3154863 0.05093,-0.3312503 0.168738,-0.033496 0.125982,0.3184378 0.02653,0.641073 -0.284213,0.9220065 -0.37515,0.3391276 -0.772031,0.4411532 -1.15814,0.2977148 z M 13.263217,4.2388586 c -0.05778,-0.093101 -0.117074,-0.3091094 -0.1318,-0.4800042 -0.05572,-0.6467676 0.461727,-1.2267584 1.377056,-1.5434951 0.404051,-0.1398103 0.568821,-0.1574215 1.458551,-0.1559449 1.17538,0.00196 1.578667,0.089016 2.446552,0.5281568 0.585301,0.2961527 1.126606,0.7740316 1.316809,1.1625372 0.08267,0.1688293 0.08315,0.1945641 0.0037,0.1945641 -0.176353,0 -0.395112,-0.1232851 -0.816603,-0.4601818 C 18.068636,2.8059964 17.41534,2.5160738 16.37186,2.3549909 c -0.584091,-0.090188 -1.531649,-0.014936 -2.114794,0.1679617 -0.444612,0.1394397 -0.812027,0.4525018 -0.901612,0.7682055 -0.06606,0.2328782 -0.05834,0.3038461 0.0662,0.6075795 0.07755,0.1891483 0.156031,0.3811428 0.174406,0.4266677 0.06443,0.1596525 -0.227203,0.083856 -0.332906,-0.086521 z" />
  </g>
  <g
     id="layer1"
     inkscape:groupmode="layer"
     inkscape:label="dessus" />
</svg>
