<?xml version="1.0" encoding="UTF-8" standalone="no"?>
<svg
   xmlns:dc="http://purl.org/dc/elements/1.1/"
   xmlns:cc="http://creativecommons.org/ns#"
   xmlns:rdf="http://www.w3.org/1999/02/22-rdf-syntax-ns#"
   xmlns:svg="http://www.w3.org/2000/svg"
   xmlns="http://www.w3.org/2000/svg"
   xmlns:xlink="http://www.w3.org/1999/xlink"
   xmlns:sodipodi="http://sodipodi.sourceforge.net/DTD/sodipodi-0.dtd"
   xmlns:inkscape="http://www.inkscape.org/namespaces/inkscape"
   inkscape:version="1.0 (4035a4fb49, 2020-05-01)"
   sodipodi:docname="silver-oak-297713.svg"
   id="svg4"
   version="1.1"
   viewBox="0 0 640 480">
  <metadata
     id="metadata10">
    <rdf:RDF>
      <cc:Work
         rdf:about="">
        <dc:format>image/svg+xml</dc:format>
        <dc:type
           rdf:resource="http://purl.org/dc/dcmitype/StillImage" />
        <dc:title></dc:title>
      </cc:Work>
    </rdf:RDF>
  </metadata>
  <defs
     id="defs8">
    <linearGradient
       id="linearGradient3204"
       inkscape:collect="always">
      <stop
         id="stop3200"
         offset="0"
         style="stop-color:#552200;stop-opacity:1" />
      <stop
         id="stop3202"
         offset="1"
         style="stop-color:#00ff00;stop-opacity:1" />
    </linearGradient>
    <linearGradient
       gradientUnits="userSpaceOnUse"
       y2="64.34935"
       x2="297.77347"
       y1="423.94864"
       x1="307.86743"
       id="linearGradient3206"
       xlink:href="#linearGradient3204"
       inkscape:collect="always" />
  </defs>
  <sodipodi:namedview
     inkscape:current-layer="svg4"
     inkscape:window-maximized="1"
     inkscape:window-y="-8"
     inkscape:window-x="-8"
     inkscape:cy="249.60852"
     inkscape:cx="365.70208"
     inkscape:zoom="0.79254885"
     showgrid="false"
     id="namedview6"
     inkscape:window-height="705"
     inkscape:window-width="1366"
     inkscape:pageshadow="2"
     inkscape:pageopacity="0"
     guidetolerance="10"
     gridtolerance="10"
     objecttolerance="10"
     borderopacity="1"
     bordercolor="#666666"
     pagecolor="#ffffff" />
  <path
     style="fill:url(#linearGradient3206);fill-opacity:1"
     id="path2"
     fill="#7f7f7f"
     d="m345.82 423.86c-5.18-2.2427-20.704-6.3156-24.072-6.3156-3.6253 0-3.8453-1.7316-0.33209-2.6134 6.8858-1.7282 19.143 1.596 25.904 7.0251 3.7609 3.02 3.0785 3.8862-1.5 1.9039zm-5.0439-7.839c-2.4992-1.3007-10.374-4.4153-17.5-6.9214-7.1258-2.5061-14.842-5.8784-17.148-7.494-8.4738-5.9387-25.051-11.864-29.778-10.644-1.1169 0.28842-4.4928 2.5545-7.502 5.0356-3.0092 2.4812-6.7418 5.1266-8.2948 5.8787l-2.8234 1.3674 6.2947 2.2795c7.3431 2.6592 16.439 7.1478 19.295 9.5219 2 1.6625 2 1.6625 0 0.95432-10.98-3.8881-15.813-5.4358-20.5-6.5646-10.037-2.4175-31.542-1.314-52 2.6685-6.875 1.3383-13.4 2.4088-14.5 2.3787-2.2249-0.06076 10.041-5.1193 18.32-7.5551 2.9262-0.86096 8.1763-3.5207 11.667-5.9105 3.4906-2.3898 9.7943-5.7803 14.008-7.5346 6.9714-2.9022 11.505-6.0867 11.505-8.0818 0-0.42188-1.8993-0.096954-4.2207 0.72211-4.7553 1.6777-23.283 3.8266-25.536 2.9618-0.89233-0.34241-1.2655-1.3449-0.94984-2.5518 0.68225-2.609-0.060226-2.51-4.6702 0.62256-3.4444 2.3406-4.0989 2.4727-6.3308 1.2782-2.2078-1.1816-3.5237-0.96838-11.641 1.886-5.5132 1.9388-12.729 3.5924-18.151 4.1594-4.95 0.51767-11.7 1.2677-15 1.6668-5.5219 0.66772-5.8906 0.59302-4.6275-0.93762 0.75482-0.91473 1.9755-1.6632 2.7125-1.6632 3.512 0 13.494-4.8268 22.018-10.647 11.889-8.1172 15.827-9.7862 29.145-12.35 5.9138-1.1387 14.733-3.0028 19.598-4.1424 8.103-1.898 9.0163-2.3604 10.87-5.5028 1.1133-1.8868 3.4325-4.1396 5.1538-5.006 4.5758-2.3033 9.4463-7.2598 10.592-10.779 0.5502-1.6897 1.6744-6.6244 2.4982-10.966 1.6844-8.8774 3.1565-11.676 7.487-14.234 7.0064-4.1388 8.0274-19.239 1.5019-22.212-1.3992-0.63754-4.4507-1.1591-6.7811-1.1591-3.8019 0-4.7572-0.53931-9.2999-5.25-6.2744-6.5064-8.4177-9.7157-11.254-16.852-1.2495-3.1434-3.8478-7.1278-5.9207-9.0791-4.4846-4.2216-13.285-9.8192-15.437-9.8192-0.8623 0-3.4456 1.5688-5.7405 3.4862-5.0669 4.2333-14.588 8.888-22.59 11.044-3.3314 0.89761-12.058 1.839-19.927 2.1495-11.618 0.45853-15.932 0.19595-25.352-1.5431-29.039-5.3607-40.044-18.606-30.335-36.514 4.8143-8.8799 22.235-22.821 30.199-24.167 2.9303-0.49524 2.3681 0.015076-3.511 3.1869-8.4598 4.5641-21.614 17.184-24.468 23.476-2.5657 5.6547-2.5672 11.49-0.003853 15.695 2.619 4.2956 11.954 8.6957 21.972 10.357 11.742 1.9471 40.811 1.6937 50.704-0.44205 8.1698-1.7637 20.496-6.6248 21.688-8.553 1.0534-1.7046-5.1924-2.4231-10.336-1.1891-4.1519 0.99603-6.286 0.85538-14.706-0.96924-8.7704-1.9006-10.534-1.9983-16.102-0.89197-5.6471 1.122-6.7124 1.0524-11-0.71893-3.4382-1.4204-5.2923-2.9715-6.7235-5.6246-2.6379-4.8901-1.3858-5.746 2.9003-1.9828 6.2153 5.4571 17.656 5.3317 26.563-0.29135 4.9135-3.1017 5.244-1.7963 0.58162 2.2973-3.2652 2.8668-3.3256 3.0376-1.25 3.5318 12.438 2.9617 18.471 0.92755 28.102-9.4748 3.4944-3.7743 6.8541-6.8623 7.4661-6.8623 1.622 0 1.3604 4.6203-0.46103 8.1426-0.86554 1.6738-1.4056 3.2114-1.2001 3.4168 0.92311 0.92313 11.985 5.4406 13.323 5.4406 1.2604 0 1.4005-1.5114 0.90356-9.75-0.50809-8.4239-0.39871-9.5186 0.80429-8.049 2.3377 2.856 4.9045 15.245 3.7744 18.218-0.91838 2.4156-1.4166 2.585-7.7562 2.639l-6.7748 0.0576 5 2.317c9.1326 4.232 12.998 7.9075 19.58 18.618 3.4317 5.5843 8.5186 12.397 11.304 15.139l5.0648 4.9855 5.5257-0.6848c4.6088-0.57114 8.5561-1.8408 13.276-4.2702 0.41251-0.21234 0.74997 0.34161 0.74997 1.231 0 0.88937-1.5743 2.5459-3.4985 3.6812s-3.2476 2.4701-2.941 2.9663c1.1133 1.8014 5.0927 0.83569 8.4773-2.0573 3.9972-3.4166 4.9622-3.6861 4.9622-1.3858 0 0.91016-1.8256 3.3915-4.057 5.5141-4.1039 3.904-4.559 4.8287-7.3756 14.986-1.387 5.002-2.0888 5.9603-6.0752 8.2965-6.4419 3.7752-7.5225 5.8828-7.2347 14.111 0.35544 10.166-3.0764 18.536-9.5075 23.188-2.6125 1.8899-4.75 3.8211-4.75 4.2918 0 0.47061-2.8125 2.8467-6.25 5.2803-6.1135 4.328-6.4575 4.4358-15.75 4.9372-13.794 0.74432-25.02 3.9642-39.645 11.371-12.383 6.271-12.508 6.3686-8.2149 6.3795 3.2643 0.008301 6.6695-1.1857 13.547-4.75l9.1866-4.7611 2.9827 1.7588c2.9508 1.74 3.0367 1.7253 8.0212-1.3732 5.3002-3.2948 8.1229-3.2865 8.1229 0.023926 0 1.0848 0.33752 2.1505 0.75 2.3682 1.7378 0.91718 22.227-1.2847 25.999-2.794 4.6058-1.8429 10.75-8.9271 11.77-13.57 0.79993-3.642 3.481-3.9098 3.481-0.34775 0 3.3035-1.4808 6.1324-5.3486 10.218-1.7098 1.8059-4.9183 6.2422-7.13 9.8583-3.861 6.3125-4.3168 6.6884-11.427 9.4217-4.0729 1.5658-7.8092 3.2508-8.3028 3.7445-1.3029 1.3029 16.431 0.59354 20.948-0.83792 2.3779-0.75351 6.5657-3.9483 11.394-8.6924l7.6343-7.501 6.3101 0.7324c9.534 1.1065 15.564 3.6018 24.921 10.314 9.7527 6.9949 16.979 10.865 22 11.783 3.4787 0.63596 3.4509 0.58884-4.5612-7.733-4.4336-4.6051-9.769-10.34-11.856-12.744l-3.7953-4.3708 0.4657-10.629c0.41049-9.3696 0.89712-11.664 4.1064-19.365 2.2028-5.2853 3.6528-10.42 3.6712-13 0.025269-3.5459 0.21265-3.9508 1.1121-2.4029 1.0214 1.7577 0.82129 6.4168-0.7482 17.423-2.2349 15.672 4.7963 21.873 36.606 32.279 7.975 2.6091 14.725 4.5171 15 4.24 0.86264-0.86902-6.5584-6.684-12.147-9.5186-2.9439-1.493-8.0526-3.4784-11.353-4.412-8.2589-2.3365-17.633-6.6562-19.828-9.1372-1.4557-1.6452-1.9425-4.3898-2.39-13.475-0.80545-16.355-0.26218-18.612 7.7835-32.33 4.856-8.2797 6.8125-12.543 6.3938-13.93-0.33182-1.1-0.85519-5.2634-1.163-9.2519-0.62878-8.1484 0.1828-9.941 8.8593-19.569l4.3443-4.8206 9.1533-0.8425c5.0343-0.46338 10.087-1.3424 11.229-1.9534 1.1417-0.61099 3.8379-3.7058 5.9916-6.8772 4.698-6.9182 4.9499-7.1362 12.876-11.15 3.4375-1.7405 6.25-3.4108 6.25-3.7117 0-0.95294-7.3246 0.75684-12 2.8011-2.475 1.0822-6.6211 4.0511-9.2136 6.5976-4.165 4.0911-4.7972 4.4122-5.4315 2.7592-0.72397-1.8867 1.2296-8.1233 5.7042-18.21 2.3302-5.2528 2.0838-7.8966-0.48578-5.2128-0.75854 0.79227-2.8102 4.9169-4.5593 9.1659-1.749 4.249-4.1712 9.199-5.3825 11-2.0036 2.979-2.7859 3.3314-8.6669 3.9036-3.5555 0.34592-8.4336 1.3584-10.84 2.25-2.4067 0.89157-6.8466 1.6211-9.8667 1.6211-5.2218 0-5.4587-0.11026-4.8353-2.25 1.7315-5.943 3.5393-15.608 3.5073-18.75-0.039825-3.908-5.5524-12.461-14.778-22.93-2.942-3.3383-4.7774-6.0696-4.0788-6.0696 0.69861 0 1.9806 0.62817 2.849 1.3959 2.6168 2.3138 15.211 8.3192 21.079 10.051 3.025 0.89285 10.135 2.0688 15.8 2.6131 12.782 1.2283 23.467 0.025604 32.735-3.6846l6.7694-2.71-3.902-3.0245c-5.0971-3.9508-13.597-12.779-12.938-13.438 0.2832-0.2832 3.2046 1.5982 6.492 4.1809 12.406 9.7463 23.488 12.237 36.317 8.1616 3.175-1.0085 6.0207-1.5857 6.3238-1.2826 1.3022 1.3022-2.9694 6.8712-7.149 9.3206-3.9401 2.3091-5.2165 2.5719-9.6395 1.9852-2.8039-0.37195-6.8756-1.5831-9.0481-2.6915-3.5162-1.7938-4.1318-1.8515-5.6049-0.52496-0.91016 0.81964-3.6076 2.597-5.9943 3.9497l-4.3395 2.4595 3.4698 2.6465c5.9104 4.5081 15.359 7.6912 24.709 8.3241l8.5 0.5754-3.75-4.1568c-5.3525-5.933-5.0364-8.7157 0.39853-3.5087 1.993 1.9094 4.1428 2.7754 7.7505 3.122 6.7664 0.65015 9.4563-0.18704 14.11-4.3918l3.9591-3.5768 2.9741 2.5026c6.0269 5.0713 15.259 4.3984 21.807-1.5896 3.6526-3.3398 2.5668-0.092163-1.2429 3.7175-6.0105 6.0105-18.753 7.4582-22.704 2.5795l-1.7754-2.1925-2.6219 3.116c-3.4765 4.1316-5.8281 5.3097-12.406 6.2153-14.096 1.9406-18.117 2.8935-26.648 6.315-10.617 4.2578-20.158 9.9242-18.469 10.968 2.2223 1.3735 18.75 1.7925 27.621 0.70026 9.7586-1.2015 20.468-3.7034 21.878-5.1108 0.50818-0.50726-0.60498-1.5012-2.6279-2.3464-5.0184-2.0968-6.0161-4.1151-1.6457-3.3292 9.5568 1.7186 22.105 2.6592 27.892 2.0907 13.385-1.3148 28.727-8.1218 37.107-16.464 4.5774-4.5569 8.8998-13.435 8.8877-18.255-0.029236-11.61-10.45-19.574-38.881-29.716-8.3817-2.9899-36.692-9.9966-40.391-9.9966-0.3974 0-0.72253-0.46053-0.72253-1.0234 0-1.3577 13.012-0.36371 28.5 2.1771 22.041 3.6158 42.811 12.252 51.462 21.399 6.163 6.5165 8.0388 10.639 8.0377 17.665-0.003357 22.499-32.562 44.054-61.594 40.776-6.1012-0.68872-7.4288-0.51663-11.405 1.4784-15.779 7.9171-32.7 10.332-49.304 7.0375l-8.7327-1.7328-2.0042 2.548c-2.303 2.9278-10.166 6.1268-17.506 7.1222-6.2593 0.84878-6.0549 0.71088-12.402 8.3705l-5.2359 6.3181 1.5931 7.0546c2.6084 11.55 2.2664 13.757-3.5737 23.07-9.2532 14.755-10.335 17.83-10.322 29.349 0.008087 7.2695 0.41184 10.593 1.4371 11.828 2.2185 2.6732 9.7385 6.1222 23.996 11.006 13.963 4.7828 17.808 6.9891 28.056 16.099 7.3434 6.5281 8.3196 7.9721 4.8805 7.2194-12.306-2.6937-45.297-11.655-52.861-14.359-5.2358-1.8715-11.32-3.3846-13.52-3.3624l-4 0.0404 7.5082 7.2093c4.1295 3.9651 9.0266 9.2343 10.882 11.709 1.8558 2.475 6.0912 7.0135 9.412 10.085 4.3115 3.9885 5.8552 6.0614 5.399 7.25-0.83121 2.1661-2.2317 2.0108-7.7454-0.85883zm5.7939-157.11c1.2375-0.33164 2.25-0.94067 2.25-1.3534 0-0.82294-8.0192-6.3662-8.4502-5.8412-0.14667 0.17871-0.5271 2.0124-0.84537 4.0749-0.54758 3.5488-0.43448 3.7493 2.1085 3.7363 1.478-0.007507 3.6996-0.285 4.9371-0.61664zm15.661-10.12c1.5932-2.6125 3.7054-6.1 4.6937-7.75l1.797-3h-26.902v3.0535c3.1e-5 2.7405 0.79437 3.5318 7.75 7.7205 4.2625 2.5668 8.2033 4.6803 8.7573 4.6965 0.55399 0.016205 2.3108-2.108 3.904-4.7205zm14.589 1.6344c0-0.34894 1.2375-0.8865 2.75-1.1946 1.5125-0.30808 4.5281-1.3082 6.7014-2.2226 3.5938-1.512 3.7748-1.7582 2-2.7207-1.0733-0.58206-3.6596-2.3924-5.7475-4.023s-3.9394-2.798-4.1145-2.5942c-1.4911 1.7351-5.5442 12.727-5.5785 15.129-0.005951 0.41718 0.88916 0.19641 1.9892-0.49054s2-1.5345 2-1.8835zm66 161.93c-4.4552-1.8842-14.361-3.7448-20.128-3.7808-3.8699-0.02417-6.0362-0.5275-6.9358-1.6116-0.94708-1.1411-2.242-1.4012-4.6899-0.94202-5.9349 1.1134-16.488-3.5738-13.892-6.1701 0.33124-0.33124 3.017 0.084656 5.9682 0.92422 4.9897 1.4194 5.6398 1.3974 9.2713-0.31436l3.9053-1.8408 2.5 2.85c2.0425 2.3284 3.598 2.968 8.5 3.495 6.0926 0.655 11.976 2.994 16.5 6.5596 2.8044 2.2103 2.6214 2.3624-1 0.83081zm-313-6.6622c0-0.51532 1.1985-1.2377 2.6633-1.6054 1.4648-0.36764 5.7023-2.116 9.4166-3.8851 6.6021-3.1446 6.8036-3.176 8.9968-1.4001 2.9292 2.372 1.9232 3.1447-6.5767 5.0519-10.613 2.3813-14.5 2.8742-14.5 1.8386zm175.04-16.904c-4.6859-5.664-9.3487-23.25-6.1645-23.25 0.91568 0 1.4469 1.2397 5.1419 12 1.2277 3.575 3.343 8.4125 4.7008 10.75 3.2372 5.573 0.79358 5.9052-3.6782 0.5zm-38.602-32.5c0.73624-1.7875 1.9127-5.95 2.6142-9.25 0.7016-3.3 1.6668-6.5149 2.145-7.1441 1.4514-1.9101 2.3158-11.792 0.95804-10.953-0.63681 0.39358-1.1578 1.6265-1.1578 2.7399 0 1.1894-0.51553 1.8414-1.25 1.5808-1.7271-0.61285-1.0644-4.8462 1.0976-7.012 4.3614-4.369 7.5677 1.9036 4.7322 9.2579-0.96078 2.4921-2.6269 7.6248-3.7024 11.406-2.1935 7.7119-4.4709 12.625-5.8521 12.625-0.50781 0-0.32092-1.4625 0.41528-3.25zm47.633-28.161c-2.3394-2.8187-2.2916-7.8932 0.11804-12.539 3.3762-6.5099 4.8802-6.1838 2.6021 0.56427-1.3123 3.8873-1.7136 6.9032-1.2689 9.5356 0.69913 4.1382 0.38995 4.6579-1.4513 2.4394zm6.126-5.7892c-1.648-1.648-1.5222-2.8798 0.86426-8.4671 2.3425-5.4843 6.5294-10.333 8.9228-10.333 2.2913 0 4.0129 2.0164 4.0129 4.7 0 2.8805-1.5802 3.0133-2.3173 0.19464-0.30283-1.1579-1.1428-1.9105-1.8666-1.6722-1.6493 0.54272-5.7776 7.6806-5.7996 10.028-0.028076 2.9838 1.5966 1.9344 3.4835-2.25 1.9624-4.3518 3.5-5.2016 3.5-1.9343 0 2.5194-1.5668 5.6843-4.2993 8.6843-2.2687 2.4908-4.6717 2.879-6.5007 1.05zm-2.1768-28.415c-0.012756-1.1633 0.8768-3.2593 1.9768-4.6577 2.3243-2.9549 2.6738-10.166 0.84482-17.429-0.96265-3.8229-0.85599-5.7721 0.63977-11.693 3.1242-12.367 4.6711-10.32 2.4669 3.2635-0.82532 5.0865-0.73303 7.3011 0.45853 11 3.378 10.486 3.2666 11.536-1.7849 16.832-3.8345 4.0195-4.5826 4.4559-4.602 2.6846zm-110.5-14.95c-3.2045-1.6709-4.4832-3.1626-4.5075-5.2579-0.010452-0.90305 0.82048-0.66513 2.6195 0.75 3.8101 2.997 8.3995 2.584 16.475-1.4826 3.8828-1.9553 7.4583-3.4178 7.9456-3.25 2.1491 0.7402-2.008 5.5346-6.9844 8.0552-6.1072 3.0934-11.151 3.4779-15.548 1.1853zm55.715-5.5467c-7.3339-3.6302-16.508-16.03-20.481-27.683-2.2041-6.4644-3.6508-19.876-2.0365-18.878 0.55565 0.34341 1.2585 2.1546 1.5621 4.0249 0.73941 4.5564 6.2504 18.183 8.8042 21.769 1.8314 2.572 2.6334 2.8786 7.5313 2.8786 6.7295 0 10.769-1.9041 15.558-7.3329l3.6758-4.1671 3.1153 2.9764c7.3973 7.0675 10.709 15.524 8.0353 20.52-1.6444 3.0726-6.7758 6.2104-9.0013 5.504-2.675-0.84903-2.5354-1.7795 0.9993-6.6589 1.65-2.2777 3-5.2794 3-6.6703 0-2.7619-2.0663-9.171-2.9568-9.171-0.30524 0-1.1565 1.3589-1.8916 3.0197-0.73514 1.6608-2.9475 4.2483-4.9163 5.75-2.9524 2.2519-4.6007 2.7303-9.4075 2.7303-3.2053 0-5.8278 0.14154-5.8278 0.31454 0 0.96112 6.998 6.037 11.326 8.2154 2.7648 1.3915 5.21 3.079 5.4336 3.75 0.68167 2.045-7.8115 1.4404-12.522-0.89145zm23.262-29.545c-4.8314-3.6891-4.8978-3.7059-14.926-3.7866-8.7618-0.070557-10.831-0.43466-15.896-2.797-6.8499-3.1951-6.8781-5.3886-0.039398-3.0584 9.3419 3.1831 25.775-0.51584 32.86-7.3964 3.7856-3.6765 8.5288-12.097 8.4615-15.022-0.026245-1.1399-1.8313-2.6229-5.0033-4.1107-3.585-1.6815-5.6551-3.5098-7.459-6.5879-3.9389-6.7212-2.9079-9.5116 1.181-3.1965 2.5077 3.8729 9.4766 7.6118 14.188 7.6118 1.7787 0 4.6007-0.70676 6.2712-1.5706 2.8115-1.4539 3.0122-1.4446 2.7004 0.12462-0.18533 0.93237-2.1991 2.6517-4.475 3.8206-3.7017 1.9013-4.1906 2.5816-4.6358 6.4523-0.40521 3.5223 0.099121 5.4747 2.7124 10.5 1.7655 3.3952 3.5456 7.2981 3.9558 8.6731 0.69885 2.3431 0.89688 2.1706 3.1562-2.75 2.8198-6.1414 3.952-6.7418 2.984-1.5823-1.4022 7.4744-4.5696 14.332-6.6194 14.332-1.7901 0-4.5442-4.4694-6.316-10.25-0.35611-1.1617-1.5512-1.75-3.5552-1.75h-3.0187l0.2374 7.6457c0.14755 4.753-0.16892 7.7891-0.83655 8.0247-0.59064 0.2084-3.2578-1.2885-5.9269-3.3266zm3.9344-6.7526c-0.53659-2.138-0.93402-2.4206-2.0738-1.4746-1.2039 0.99912-1.1635 1.4427 0.27566 3.033 2.1045 2.3255 2.6536 1.8496 1.7982-1.5584zm-69.807-12.716c-8.9772-0.91534-18.404-4.8139-25.296-10.461-3.8004-3.1141-4.5396-3.372-6.5567-2.287-10.305 5.5427-28.375 0.37042-32.806-9.3899-2.4897-5.4847-2.5062-12.761-0.039871-17.596 2.5763-5.05 9.1275-10.82 15.702-13.83 7.1558-3.276 10.65-2.6254 3.87 0.72058-10.392 5.1287-18.896 16.808-16.937 23.262 1.0683 3.5201 5.2824 8.5744 8.564 10.271 4.8359 2.5008 15.816 3.0104 21.911 1.017 5.6539-1.8493 7.0131-1.4944 5.2274 1.3649-1.0014 1.6036-0.65566 2.184 2.5378 4.2597 7.8255 5.0865 14.281 7.1297 23.988 7.5922 10.109 0.48169 16.214-0.98352 28.673-6.882 3.28-1.5529 6.1531-2.634 6.3846-2.4025 1.3043 1.3043-2.766 7.1111-6.7598 9.6439-7.3908 4.6871-15.528 6.0356-28.462 4.7167zm144.87-39.736c-4.1479-2.5621-6.2253-5.1165-7.0263-8.6394l-0.6821-3 2.5643 3.6383c3.8828 5.5088 12.089 7.5374 17.644 4.3617 3.1938-1.8257 4-1.8403 4-0.072586 0 0.78508-1.1857 2.3601-2.6349 3.5-3.3394 2.6268-9.796 2.7255-13.865 0.21202zm24.5-3.1152c-7.1831-1.3683-11.486-4.9114-14.002-11.53-1.3456-3.5394 0.11539-3.0668 2.6573 0.85948 5.7218 8.838 17.212 8.6372 28.323-0.49492 3.4258-2.8156 6.0222-3.6788 6.0222-2.0022 0 0.47092-1.5459 2.8808-3.4354 5.3554-4.9263 6.4518-11.961 9.261-19.565 7.8126zm61-2.6165c0-0.32574 0.89999-1.7364 2-3.1349 2.6674-3.3911 2.7412-14.045 0.13684-19.777-2.4236-5.3349-11.721-13.681-19.413-17.427-7.5204-3.6622-22.163-7.6525-33.724-9.1902-13.334-1.7735-13.639-2.0966-5.621-5.9491 10.841-5.2092 13.202-11.503 6.8532-18.269-3.0776-3.2798-13.589-8.6586-16.923-8.6598-2.2467-8.09e-4 -3.9473-1.5184-2.5753-2.2981 0.42145-0.23953 3.59 0.1534 7.0412 0.87317 17.076 3.5613 25.734 13.746 20.336 23.92-1.2006 2.2631-3.6293 4.9898-5.3971 6.0592l-3.2142 1.9445 3.5 0.2524c29.538 2.13 51.97 13.035 59.133 28.748 4.6364 10.171-0.6698 23.5-9.3552 23.5-1.5276 0-2.7775-0.26652-2.7775-0.59227zm22.267-2.3128c3.6524-4.3406 3.5414-8.105-0.37024-12.56-2.3731-2.7028-2.7145-3.5348-1.4504-3.5348 3.0244 0 7.5 2.9951 9.1004 6.0899 2.9424 5.6901 0.027649 11.245-6.5955 12.57l-3.4177 0.6835 2.7333-3.2484zm-290.04-10.764c-2.7019-1.0871-4.6139-6.7878-4.6388-13.831-0.038361-10.86 3.8214-18.121 16.147-30.378 10.767-10.706 18.942-15.662 33.763-20.464 13.01-4.2154 31.082-5.816 39-3.4543 3.951 1.1784 3.8838 1.2024-5.5 1.9551-19.09 1.5312-27.51 3.6091-40.382 9.9653-14.364 7.0927-25.629 18.278-33.233 32.999-2.2329 4.3228-2.7879 6.7491-2.8312 12.377-0.029572 3.85 0.31406 8.0125 0.76361 9.25 0.82831 2.28-0.13055 2.7708-3.0884 1.5807zm127.27-8.5439c-1.6499-0.58043-3.5344-1.4767-4.1875-1.9917-0.6532-0.515-3.1992-0.6347-5.6578-0.26601-2.4586 0.36868-5.8951 0.35738-7.6367-0.025146-5.481-1.2038-13.018-9.2829-13.018-13.954 0-2.5958 1.4413-1.7427 3.4934 2.0678 4.0513 7.5228 11.192 10.73 17.528 7.8731 3.6836-1.6611 4.0939-1.664 7.4891-0.05278 6.0885 2.8892 9.8792 3.0363 14.953 0.5802 5.467-2.6465 7.8795-6.6317 7.3534-12.148-0.45438-4.7651 0.8125-5.0032 2.6916-0.50594 2.0096 4.8097 0.42313 9.6828-4.5336 13.926-5.9842 5.1222-12.315 6.6632-18.474 4.4967zm-35.129-57.344c-0.92151-1.4062-1.8675-4.6688-2.1024-7.25-0.88888-9.7688 7.3652-18.529 21.966-23.313 6.4452-2.1117 9.0735-2.3777 23.266-2.3554 18.749 0.029564 25.182 1.3445 39.026 7.9773 9.3364 4.4731 17.971 11.691 21.005 17.559 1.3186 2.55 1.3264 2.9387 0.059052 2.9387-2.8131 0-6.3026-1.8621-13.026-6.9506-13.54-10.248-23.961-14.627-40.606-17.06-9.3171-1.3622-24.432-0.22557-33.734 2.5369-7.0922 2.1061-12.953 6.8346-14.382 11.603-1.0538 3.5174-0.93051 4.5893 1.0559 9.1769 1.237 2.8569 2.4889 5.7568 2.782 6.4444 1.0279 2.4114-3.6242 1.2665-5.3103-1.3068z" />
</svg>
